<svg width="60" height="68" viewBox="0 0 60 68" fill="none" xmlns="http://www.w3.org/2000/svg">
<path d="M9.90295 19.6143V26.0493H50.0971V19.6143C50.0971 17.7422 48.1554 16.8842 47.1845 16.6892H12.8156C10.9515 16.6892 10.0971 18.6392 9.90295 19.6143Z" fill="#FCEEA8" stroke="#2A4C95"/>
<path d="M50.0971 64.66V39.5046H10.4855V64.66C10.4855 66.532 12.0389 67 12.8156 67H47.767C49.6311 67 50.0971 65.44 50.0971 64.66Z" fill="white" stroke="#2A4C95"/>
<path d="M25.6311 46.5247V67H34.9515V46.5247H25.6311Z" fill="#FCEEA8" stroke="#2A4C95"/>
<path d="M9.32036 30.1446L2.9126 26.0496" stroke="white"/>
<path d="M50.6796 30.1446L57.0874 26.0496" stroke="white"/>
<path d="M8.73786 34.8245H0" stroke="white"/>
<path d="M51.2621 34.8245H60" stroke="white"/>
<path d="M8.73784 40.6746L3.49512 44.7696" stroke="white"/>
<path d="M51.2622 40.6746L56.5049 44.7696" stroke="white"/>
<path d="M2.9126 7.32909C4.77668 11.5412 10.2912 15.3242 12.8155 16.6892H19.2233L14.5631 5.57406L8.73784 1.479V7.32909H2.9126Z" fill="white" stroke="#2A4C95"/>
<path d="M57.6699 7.32909C55.8058 11.5412 50.2913 15.3242 47.767 16.6892H41.3592L46.0194 5.57406L51.8447 1.479V7.32909H57.6699Z" fill="white" stroke="#2A4C95"/>
<path d="M13.3981 10.8392C13.3981 10.8392 15.7282 14.9342 19.2233 16.6893C22.7184 18.4444 30.2913 12.5942 30.2913 9.66915C30.2913 7.32912 27.5728 4.0141 26.2136 2.6491C24.6602 1.28408 20.5049 -0.509948 16.3107 3.23411C12.1165 6.97816 12.6214 9.8642 13.3981 10.8392Z" fill="white" stroke="#2A4C95"/>
<path d="M46.6019 10.8392C46.6019 10.8392 44.2718 14.9342 40.7767 16.6893C37.2816 18.4444 29.7087 12.5942 29.7087 9.66915C29.7087 7.32912 32.4272 4.0141 33.7864 2.6491C35.3398 1.28408 39.4951 -0.509948 43.6893 3.23411C47.8835 6.97816 47.3786 9.8642 46.6019 10.8392Z" fill="white" stroke="#2A4C95"/>
<path d="M20.3884 4.98901C19.9224 8.26506 23.301 11.4241 25.0486 12.5941C26.4078 13.3741 28.6602 13.9981 26.7962 10.2541C24.9321 6.51004 21.7476 5.18402 20.3884 4.98901Z" fill="white" stroke="#2A4C95"/>
<path d="M39.6116 4.98901C40.0776 8.26506 36.699 11.4241 34.9514 12.5941C33.5922 13.3741 31.3398 13.9981 33.2038 10.2541C35.0679 6.51004 38.2524 5.18402 39.6116 4.98901Z" fill="white" stroke="#2A4C95"/>
<path d="M24.4661 13.1792V16.6893H36.1165V13.1792C36.1165 12.0092 34.9515 9.66919 30.2913 9.66919C25.6311 9.66919 24.4661 12.0092 24.4661 13.1792Z" fill="white" stroke="#2A4C95"/>
<path d="M23.301 34.2395V16.6892H36.6991V34.2395L30.2913 28.3894L23.301 34.2395Z" fill="#FCEEA8" stroke="#2A4C95"/>
<path d="M23.301 52.9598V39.5046H36.6991V52.9598L30.2913 47.1098L23.301 52.9598Z" fill="#FCEEA8" stroke="#2A4C95"/>
</svg>
